<svg viewBox="0 0 244 266" xmlns="http://www.w3.org/2000/svg" xmlns:xlink="http://www.w3.org/1999/xlink" width="244.000000" height="266.000000" fill="none">
	<rect id="Frame" width="244.000000" height="266.000000" x="0.000000" y="0.000000" fill="rgb(255,255,255)" fill-opacity="0" />
	<path id="Vector" d="M108.965 219L110.135 222.82L113.929 222.82L110.858 225.18L112.036 229L108.965 226.639L105.893 229L107.072 225.18L104 222.82L107.794 222.82L108.965 219ZM120.804 222.82L117.018 222.82L120.081 225.18L118.911 229L121.983 226.639L125.046 229L123.876 225.18L126.947 222.82L123.17 222.82L122 219L120.804 222.82ZM133.822 222.82L130.054 222.82L133.125 225.18L131.955 229L135.018 226.639L138.09 229L136.937 225.18L140 222.82L136.163 222.82L134.992 219L133.822 222.82Z" fill="rgb(28,65,58)" fill-rule="nonzero" />
	<path id="Vector" d="M85.2551 51.0576C85.2551 51.0576 89.5591 41.3347 99.2433 42.1966C108.927 43.0586 111.811 37.8868 111.811 37.8868C111.811 37.8868 114.11 52.885 102.669 54.471C93.1057 55.807 89.826 49.3423 85.2551 51.0576ZM82.5779 48.4114C90.3941 45.1963 87.6051 31.3618 83.2149 29C83.4301 31.5859 79.7717 37.1542 72.5064 41.4381C65.2411 45.7221 67.7977 56.9534 67.7977 56.9534C69.9412 53.4539 74.7531 51.6265 82.5779 48.4114ZM62.8825 56.9879C69.4591 51.6868 64.4061 39.0505 58.6645 37.6541C59.5942 40.059 57.6832 46.4461 51.9157 52.6264C46.1482 58.8066 51.8038 68.8744 51.8038 68.8744C52.854 64.8748 56.2887 62.2976 62.8825 56.9879ZM46.3979 68.8744C51.6661 62.2545 44.6763 50.1956 38.6506 50.1956C40.0881 52.3419 39.6061 58.9877 35.3278 66.2799C31.0496 73.5721 38.7711 82.1572 38.7711 82.1572C38.9174 78.0284 41.1297 75.4856 46.3979 68.8744ZM82.8964 70.3914C88.0613 66.5298 97.3495 68.995 97.3495 68.995C97.3495 68.995 96.8158 57.5223 85.7888 55.4881C74.7617 53.4539 68.4347 59.7979 68.4347 59.7979C73.4705 59.1773 79.7889 63.8491 82.8964 70.3828L82.8964 70.3914ZM69.1664 78.5197C73.2123 73.5203 82.8448 73.6238 82.8448 73.6238C82.8448 73.6238 79.522 62.6338 68.3314 63.3578C57.1409 64.0818 52.5527 71.7705 52.5527 71.7705C57.2786 69.9087 64.5611 72.9687 69.1664 78.5197ZM55.8496 89.3459C58.2341 83.3725 67.4706 80.6229 67.4706 80.6229C67.4706 80.6229 61.0576 71.1413 50.5728 75.115C40.0881 79.0886 38.0136 87.8548 38.0136 87.8548C41.9561 84.6741 49.7981 85.4154 55.8496 89.3459ZM32.7023 86.0188C37.0667 78.7697 29.7067 67.7452 22.5361 68.6071C24.2577 70.5466 24.6365 77.2268 21.3396 84.9844C18.0427 92.7421 26.823 100.31 26.823 100.31C26.427 96.2416 28.3466 93.3023 32.7023 86.0532L32.7023 86.0188ZM22.8546 106.352C25.5404 98.3276 15.9681 89.1736 9.15046 91.5698C11.2422 93.0869 13.0672 99.4912 11.5435 107.809C10.0199 116.127 20.1947 121.583 20.1947 121.583C18.9293 117.653 20.1689 114.403 22.8546 106.387L22.8546 106.352ZM18.387 128.479C19.4802 120.083 8.34989 112.964 2.1176 116.601C4.4504 117.687 7.47188 123.626 7.56656 132.116C7.66125 140.607 18.6883 143.934 18.6883 143.934C16.6912 140.288 17.2852 136.866 18.387 128.479ZM19.1187 152.373C17.595 144.046 4.81195 140.659 0 146.054C2.58244 146.373 7.23944 151.097 9.91657 159.122C12.5937 167.147 24.12 166.974 24.12 166.974C21.1072 164.138 20.6337 160.699 19.1187 152.373ZM26.7197 175.956C23.0268 168.336 9.80467 168.509 6.61105 174.999C9.19349 174.62 14.9437 177.913 19.661 184.92C24.3783 191.928 35.4311 188.661 35.4311 188.661C31.7899 186.748 30.4126 183.558 26.7197 175.956ZM40.2517 196.789C34.7597 190.351 22.0024 193.85 20.539 200.936C22.9149 199.927 29.3366 201.66 35.6808 207.254C42.025 212.848 51.8899 206.9 51.8899 206.9C47.8785 205.961 45.7609 203.228 40.2517 196.789ZM56.4694 213.012C49.0922 208.866 38.3235 216.554 39.3909 223.709C41.2761 221.942 47.8957 221.347 55.7463 224.407C63.597 227.467 70.845 218.476 70.845 218.476C66.782 218.985 63.838 217.158 56.4694 213.012ZM77.7057 223.295C69.6915 220.605 60.5497 230.191 62.9341 237C64.4492 234.914 70.845 233.087 79.1519 234.612C87.4587 236.138 92.8733 225.993 92.8733 225.993C88.9479 227.26 85.7113 225.984 77.7057 223.295ZM44.5988 103.999C44.7107 97.5691 52.3461 91.7163 52.3461 91.7163C52.3461 91.7163 42.9718 85.0965 34.5961 92.5783C26.2204 100.06 27.3309 108.956 27.3309 108.956C29.9391 104.508 37.5315 102.405 44.5988 103.999ZM38.8227 122.325C37.8758 115.963 44.4611 108.921 44.4611 108.921C44.4611 108.921 34.1313 103.948 27.0984 112.696C20.0656 121.445 22.6308 130.022 22.6308 130.022C24.4471 125.247 31.6005 121.919 38.8227 122.29L38.8227 122.325ZM36.2919 140.297C32.9864 134.789 36.3694 125.755 36.3694 125.755C36.3694 125.755 24.9206 125.135 21.7786 135.918C18.6366 146.701 24.2922 153.631 24.2922 153.631C24.1544 148.554 29.4829 142.736 36.2919 140.297ZM39.959 158.398C34.7941 154.519 34.6133 144.874 34.6133 144.874C34.6133 144.874 23.7499 148.554 24.8517 159.734C25.9535 170.913 33.7783 175.249 33.7783 175.249C31.764 170.612 34.5703 163.225 39.959 158.424L39.959 158.398ZM49.2041 174.318C43.4969 171.353 41.672 161.88 41.672 161.88C41.672 161.88 31.5747 167.336 34.5359 178.171C37.4971 189.006 45.9331 191.962 45.9331 191.962C43.1785 187.704 44.6849 179.955 49.2041 174.318ZM60.9629 189.178C55.4881 187.454 52.3547 179.43 52.3547 179.43C52.3547 179.43 44.3406 185.808 48.6446 194.867C52.9487 203.927 60.8251 205.211 60.8251 205.211C57.8123 201.892 57.8811 194.85 60.9801 189.178L60.9629 189.178ZM74.0903 199.522C68.4778 199.22 63.6056 192.342 63.6056 192.342C63.6056 192.342 57.5368 200.332 63.8036 207.857C70.0703 215.382 77.852 214.753 77.852 214.753C74.1678 212.339 72.5236 205.625 74.1075 199.496L74.0903 199.522ZM89.0598 206.418C83.6797 207.107 77.8692 201.41 77.8692 201.41C77.8692 201.41 73.4877 210.029 80.753 216.158C88.0183 222.286 95.2922 220.243 95.2922 220.243C91.3238 218.64 88.6381 212.538 89.0771 206.435L89.0598 206.418Z" fill="rgb(32,173,150)" fill-rule="nonzero" />
	<path id="Vector" d="M141.322 54.4849C129.884 52.8985 132.191 37.8973 132.191 37.8973C132.191 37.8973 135.039 43.0701 144.748 42.208C154.456 41.3458 158.742 51.0708 158.742 51.0708C154.232 49.3379 150.867 55.8039 141.322 54.4849ZM176.197 56.9851C176.197 56.9851 178.779 45.7255 171.48 41.4665C164.182 37.2076 160.584 31.5864 160.791 29C156.401 31.3623 153.621 45.1996 161.436 48.4154C169.251 51.6312 174.071 53.4503 176.214 56.9851L176.197 56.9851ZM192.179 68.874C192.179 68.874 197.834 58.8042 192.067 52.6227C186.301 46.4411 184.39 40.0526 185.328 37.6473C179.588 39.0439 174.527 51.6829 181.111 56.9851C187.695 62.2872 191.146 64.8737 192.196 68.874L192.179 68.874ZM205.227 82.1596C205.227 82.1596 212.973 73.5382 208.67 66.279C204.366 59.0197 203.91 52.3381 205.347 50.1914C199.323 50.1914 192.334 62.2614 197.601 68.874C202.869 75.4866 205.081 78.0299 205.244 82.1596L205.227 82.1596ZM175.551 59.7439C175.551 59.7439 169.234 53.4158 158.209 55.4332C147.183 57.4506 146.641 68.943 146.641 68.943C146.641 68.943 155.954 66.529 161.118 70.3827C164.216 63.8477 170.533 59.1749 175.568 59.7784L175.551 59.7439ZM191.43 71.7363C191.43 71.7363 186.852 64.046 175.663 63.3218C164.474 62.5976 161.143 73.5899 161.143 73.5899C161.143 73.5899 170.783 73.4864 174.819 78.4869C179.45 72.9692 186.722 69.9086 191.448 71.7708L191.43 71.7363ZM205.993 87.8238C205.993 87.8238 203.884 79.1248 193.41 75.1159C182.936 71.1069 176.524 80.625 176.524 80.625C176.524 80.625 185.759 83.3752 188.143 89.3498C194.202 85.4185 202.051 84.677 206.01 87.8583L205.993 87.8238ZM217.182 100.282C217.182 100.282 225.943 92.7984 222.655 85.0391C219.368 77.2799 219.764 70.5983 221.468 68.6585C214.29 67.7963 206.94 78.8231 211.295 86.0737C215.65 93.3243 217.569 96.2469 217.182 100.316L217.182 100.282ZM223.8 121.559C223.8 121.559 233.982 116.145 232.458 107.817C230.935 99.4886 232.76 93.0915 234.842 91.5742C228.026 89.1774 218.49 98.3333 221.149 106.36C223.809 114.386 225.074 117.663 223.8 121.594L223.8 121.559ZM225.315 143.88C225.315 143.88 236.34 140.526 236.435 132.06C236.529 123.594 239.542 117.663 241.883 116.542C235.652 112.878 224.514 119.99 225.616 128.422C226.718 136.854 227.312 140.302 225.315 143.915L225.315 143.88ZM219.884 166.96C219.884 166.96 231.408 167.132 234.085 159.106C236.762 151.079 241.444 146.355 244 146.036C239.189 140.639 226.399 144.027 224.885 152.355C223.37 160.683 222.888 164.158 219.884 166.994L219.884 166.96ZM208.558 188.651C208.558 188.651 219.643 191.945 224.334 184.944C229.024 177.943 234.834 174.641 237.39 175.021C234.197 168.529 220.969 168.356 217.276 175.978C213.584 183.599 212.207 186.772 208.558 188.686L208.558 188.651ZM192.102 206.929C192.102 206.929 201.974 212.877 208.317 207.282C214.66 201.687 221.072 199.954 223.456 200.963C221.993 193.876 209.238 190.375 203.747 196.816C198.255 203.256 196.13 205.989 192.102 206.929ZM173.167 218.507C173.167 218.507 180.388 227.491 188.263 224.439C196.138 221.387 202.765 221.973 204.616 223.74C205.683 216.585 194.907 208.894 187.54 213.041C180.173 217.188 177.229 219.016 173.167 218.507ZM151.168 225.99C151.168 225.99 156.582 236.172 164.887 234.612C173.193 233.051 179.588 234.914 181.111 237C183.495 230.172 174.355 220.619 166.342 223.292C158.329 225.965 155.093 227.292 151.134 225.99L151.168 225.99ZM216.674 108.886C216.674 108.886 217.784 100.006 209.41 92.5053C201.035 85.0046 191.671 91.6431 191.671 91.6431C191.671 91.6431 199.331 97.4971 199.417 103.929C206.466 102.411 214.066 104.515 216.639 108.886L216.674 108.886ZM221.407 130C221.407 130 223.989 121.43 216.941 112.671C209.892 103.911 199.581 108.895 199.581 108.895C199.581 108.895 206.165 115.938 205.21 122.301C212.405 121.93 219.548 125.258 221.364 130L221.407 130ZM219.746 153.648C219.746 153.648 225.392 146.751 222.251 135.931C219.109 125.111 207.62 125.767 207.62 125.767C207.62 125.767 211.011 134.802 207.697 140.311C214.479 142.751 219.841 148.57 219.712 153.648L219.746 153.648ZM210.279 175.297C210.279 175.297 218.102 170.986 219.196 159.778C220.289 148.57 209.436 144.915 209.436 144.915C209.436 144.915 209.22 154.562 204.099 158.442C209.461 163.244 212.241 170.632 210.227 175.297L210.279 175.297ZM198.109 191.988C198.109 191.988 206.552 189.039 209.496 178.193C212.439 167.348 202.369 161.899 202.369 161.899C202.369 161.899 200.536 171.382 194.839 174.34C199.323 179.978 200.82 187.729 198.057 191.988L198.109 191.988ZM183.177 205.23C183.177 205.23 191.06 203.954 195.355 194.884C199.65 185.815 191.645 179.443 191.645 179.443C191.645 179.443 188.556 187.487 183.039 189.194C186.129 194.876 186.223 201.919 183.125 205.23L183.177 205.23ZM166.196 214.714C166.196 214.714 173.942 215.412 180.242 207.817C186.542 200.221 180.44 192.298 180.44 192.298C180.44 192.298 175.568 199.195 169.957 199.48C171.446 205.653 169.879 212.369 166.144 214.757L166.196 214.714ZM148.767 220.249C148.767 220.249 156.048 222.266 163.312 216.162C170.576 210.058 166.135 201.428 166.135 201.428C166.135 201.428 160.317 207.127 154.947 206.437C155.368 212.567 152.683 218.671 148.715 220.292L148.767 220.249Z" fill="rgb(32,173,150)" fill-rule="nonzero" />
	<path id="Vector" d="M121.505 72L123.27 76.9653L129 76.9653L124.369 80.0347L126.135 85L121.505 81.9306L116.865 85L118.64 80.0347L114 76.9653L119.73 76.9653L121.505 72Z" fill="rgb(28,65,58)" fill-rule="nonzero" />
</svg>
