<svg viewBox="0 0 72 72" xmlns="http://www.w3.org/2000/svg" xmlns:xlink="http://www.w3.org/1999/xlink" width="72.000000" height="72.000000" fill="none">
	<rect id="Frame" width="72.000000" height="72.000000" x="0.000000" y="0.000000" fill="rgb(255,255,255)" fill-opacity="0" />
	<path id="Vector" d="M0 0L72 0L72 72L0 72L0 0Z" fill-rule="nonzero" />
	<path id="Vector" d="M51 12C52.5913 12 54.1174 12.6321 55.2426 13.7574C56.3679 14.8826 57 16.4087 57 18L57 54C57 55.5913 56.3679 57.1174 55.2426 58.2426C54.1174 59.3679 52.5913 60 51 60L18 60C17.2043 60 16.4413 59.6839 15.8787 59.1213C15.3161 58.5587 15 57.7957 15 57L15 15C15 14.2044 15.3161 13.4413 15.8787 12.8787C16.4413 12.3161 17.2043 12 18 12L51 12ZM27 12L27 66" fill-rule="nonzero" stroke="rgb(63,58,100)" stroke-linecap="round" stroke-linejoin="round" stroke-width="2.75" />
	<path id="Vector" d="M39 24L45 24" stroke="rgb(32,173,150)" stroke-linecap="round" stroke-linejoin="round" stroke-width="2.75" />
	<path id="Vector" d="M39 36L45 36" stroke="rgb(32,173,150)" stroke-linecap="round" stroke-linejoin="round" stroke-width="2.75" />
</svg>
