<svg viewBox="0 0 72 72" xmlns="http://www.w3.org/2000/svg" xmlns:xlink="http://www.w3.org/1999/xlink" width="72.000000" height="72.000000" fill="none">
	<defs>
		<clipPath id="clipPath_4">
			<rect width="72.000000" height="72.000000" x="0.000000" y="0.000000" fill="rgb(255,255,255)" />
		</clipPath>
	</defs>
	<rect id="browser-internet-web-network-diagram-1 1" width="72.000000" height="72.000000" x="0.000000" y="0.000000" fill="rgb(255,255,255)" fill-opacity="0" />
	<g id="Frame" clip-path="url(#clipPath_4)" customFrame="url(#clipPath_4)">
		<rect id="Frame" width="72.000000" height="72.000000" x="0.000000" y="0.000000" fill="rgb(255,255,255)" fill-opacity="0" />
		<path id="Vector" d="M0 0L72 0L72 72L0 72L0 0Z" fill-rule="nonzero" />
		<path id="Vector" d="M21 21C17.6863 21 15 18.3137 15 15C15 11.6863 17.6863 9 21 9C24.3137 9 27 11.6863 27 15C27 18.3137 24.3137 21 21 21Z" stroke="rgb(32,173,150)" stroke-linecap="round" stroke-linejoin="round" stroke-width="2.75" />
		<path id="Vector" d="M15 66L15 51L12 48L12 36C12 35.2043 12.3161 34.4413 12.8787 33.8787C13.4413 33.3161 14.2044 33 15 33L27 33C27.7957 33 28.5587 33.3161 29.1213 33.8787C29.6839 34.4413 30 35.2043 30 36L30 48L27 51L27 66" fill-rule="nonzero" stroke="rgb(32,173,150)" stroke-linecap="round" stroke-linejoin="round" stroke-width="2.75" />
		<path id="Vector" d="M51 21C47.6863 21 45 18.3137 45 15C45 11.6863 47.6863 9 51 9C54.3137 9 57 11.6863 57 15C57 18.3137 54.3137 21 51 21Z" stroke="rgb(63,58,100)" stroke-linecap="round" stroke-linejoin="round" stroke-width="2.75" />
		<path id="Vector" d="M45 66L45 54L39 54L45 36C45 35.2043 45.3161 34.4413 45.8787 33.8787C46.4413 33.3161 47.2043 33 48 33L54 33C54.7957 33 55.5587 33.3161 56.1213 33.8787C56.6839 34.4413 57 35.2043 57 36L63 54L57 54L57 66" fill-rule="nonzero" stroke="rgb(63,58,100)" stroke-linecap="round" stroke-linejoin="round" stroke-width="2.75" />
	</g>
</svg>
