<svg viewBox="0 0 72 72" xmlns="http://www.w3.org/2000/svg" xmlns:xlink="http://www.w3.org/1999/xlink" width="72.000000" height="72.000000" fill="none">
	<defs>
		<clipPath id="clipPath_0">
			<rect width="78.000000" height="78.000000" x="-6.000000" y="0.000000" fill="rgb(255,255,255)" />
		</clipPath>
	</defs>
	<rect id="browser-internet-web-network-diagram-1 1" width="72.000000" height="72.000000" x="0.000000" y="0.000000" fill="rgb(255,255,255)" fill-opacity="0" />
	<g id="Frame" clip-path="url(#clipPath_0)" customFrame="url(#clipPath_0)">
		<rect id="Frame" width="78.000000" height="78.000000" x="-6.000000" y="0.000000" fill="rgb(255,255,255)" fill-opacity="0" />
		<path id="Vector" d="M-6 0L72 0L72 78L-6 78L-6 0Z" fill-rule="nonzero" />
		<path id="Vector" d="M52.5 35.75L29.75 35.75C28.888 35.75 28.0614 35.4076 27.4519 34.7981C26.8424 34.1886 26.5 33.362 26.5 32.5L26.5 13C26.5 12.138 26.8424 11.3114 27.4519 10.7019C28.0614 10.0924 28.888 9.75 29.75 9.75L59 9.75C59.862 9.75 60.6886 10.0924 61.2981 10.7019C61.9076 11.3114 62.25 12.138 62.25 13L62.25 45.5L52.5 35.75Z" fill-rule="nonzero" stroke="rgb(63,58,100)" stroke-linecap="round" stroke-linejoin="round" stroke-width="2.75" />
		<path id="Vector" d="M39.5 48.75L39.5 55.25C39.5 56.112 39.1576 56.9386 38.5481 57.5481C37.9386 58.1576 37.112 58.5 36.25 58.5L13.5 58.5L3.75 68.25L3.75 35.75C3.75 34.888 4.09241 34.0614 4.7019 33.4519C5.3114 32.8424 6.13805 32.5 7 32.5L13.5 32.5" fill-rule="nonzero" stroke="rgb(32,173,150)" stroke-linecap="round" stroke-linejoin="round" stroke-width="2.75" />
	</g>
</svg>
