<svg viewBox="0 0 20 24" xmlns="http://www.w3.org/2000/svg" xmlns:xlink="http://www.w3.org/1999/xlink" width="20.000000" height="24.000000" fill="none" customFrame="#000000">
	<rect id="Icon" width="20.000000" height="24.000000" x="0.000000" y="0.000000" fill="rgb(255,255,255)" fill-opacity="0" />
	<path id="Combined Shape" d="M10 20.3333C14.6024 20.3333 18.3333 16.6024 18.3333 12C18.3333 7.39763 14.6024 3.66667 10 3.66667C5.39763 3.66667 1.66667 7.39763 1.66667 12C1.66667 16.6024 5.39763 20.3333 10 20.3333ZM10 22C4.47715 22 0 17.5228 0 12C0 6.47715 4.47715 2 10 2C15.5228 2 20 6.47715 20 12C20 17.5228 15.5228 22 10 22Z" fill="rgb(234.812,70.4437,70.4437)" fill-rule="evenodd" />
	<path id="Vector" d="M10 11.1113L13.1113 8L14 8.88875L10.8887 12L14 15.1113L13.1113 16L10 12.8887L6.88875 16L6 15.1113L9.11125 12L6 8.88875L6.88875 8L10 11.1113Z" fill="rgb(234.812,70.4437,70.4437)" fill-rule="nonzero" />
</svg>
