<svg viewBox="0 0 169 48" xmlns="http://www.w3.org/2000/svg" xmlns:xlink="http://www.w3.org/1999/xlink" width="169.000000" height="48.000000" fill="none" customFrame="#000000">
	<defs>
		<clipPath id="clipPath_1">
			<rect width="28.999992" height="48.000000" x="0.000000" y="0.000000" fill="rgb(255,255,255)" />
		</clipPath>
	</defs>
	<rect id="Company logo" width="168.999954" height="48.000000" x="0.000000" y="0.000000" />
	<g id="Logomark" customFrame="url(#clipPath_1)">
		<rect id="Logomark" width="28.999992" height="48.000000" x="0.000000" y="0.000000" fill="rgb(255,255,255)" fill-opacity="0" />
		<rect id="Shape" width="9.599984" height="9.599989" x="0.000000" y="19.199951" fill="rgb(102.225,112.408,132.775)" />
		<rect id="Shape" width="9.599997" height="9.599987" x="0.000000" y="0.000000" fill="rgb(102.225,112.408,132.775)" transform="matrix(-1,2.35969e-08,-2.3597e-08,-1,28.8,28.8)" />
		<path id="Shape" d="M9.6001 19.2001L19.2001 9.6001L19.2001 19.2001L9.6001 28.8001L9.6001 19.2001Z" fill="rgb(207.672,212.894,220.728)" fill-rule="nonzero" />
		<path id="Shape" d="M0 9.59999L9.59998 0L9.59998 9.59999L0 19.2L0 9.59999Z" fill="rgb(152.075,161.967,178.925)" fill-rule="nonzero" transform="matrix(-1,2.3597e-08,-2.35969e-08,-1,19.2,38.3999)" />
		<path id="Shape" d="M0 19.2L19.2 0L19.2 9.59999L9.59998 19.2L0 19.2Z" fill="rgb(102.225,112.408,132.775)" fill-rule="nonzero" />
		<path id="Shape" d="M0 19.2L19.2 0L19.2 9.59999L9.59999 19.2L0 19.2Z" fill="rgb(102.225,112.408,132.775)" fill-rule="nonzero" transform="matrix(-1,2.3597e-08,-2.3597e-08,-1,28.8,48)" />
	</g>
	<path id="Logotype" d="M62.6693 16.584C62.0347 16.584 61.5027 16.388 61.0733 15.996C60.644 15.5854 60.4293 15.0814 60.4293 14.484C60.4293 13.8867 60.644 13.392 61.0733 13C61.5027 12.5894 62.0347 12.384 62.6693 12.384C63.304 12.384 63.836 12.58 64.2654 12.972C64.6947 13.3454 64.9093 13.8214 64.9093 14.4C64.9093 15.016 64.6947 15.5387 64.2654 15.968C63.8547 16.3787 63.3227 16.584 62.6693 16.584ZM127.003 18.88Q129.251 18.88 130.792 19.9245L130.792 19.9247Q131.189 20.1937 131.539 20.532C132.677 21.6334 133.247 23.2667 133.247 25.432L133.247 34L129.747 34L129.747 25.88C129.747 24.5734 129.439 23.5934 128.823 22.94C128.207 22.268 127.329 21.932 126.191 21.932C124.903 21.932 123.885 22.324 123.139 23.108C122.392 23.8734 122.019 24.984 122.019 26.44L122.019 34L118.519 34L118.519 13.224L122.019 13.224L122.019 20.784Q122.199 20.5922 122.396 20.4197L122.396 20.4192Q123.149 19.7611 124.147 19.384C125.005 19.048 125.957 18.88 127.003 18.88ZM49.708 34.28C48.196 34.28 46.7306 34.0654 45.312 33.636Q43.212 32.992 41.98 31.928L43.24 29.1C44.0426 29.7347 45.0226 30.2574 46.18 30.668Q47.944 31.256 49.708 31.256Q51.892 31.256 52.956 30.556C53.684 30.0894 54.048 29.4734 54.048 28.708Q54.048 28.2499 53.8647 27.8833Q53.712 27.5779 53.432 27.336C53.04 26.9627 52.536 26.6734 51.92 26.468C51.304 26.2627 50.464 26.0294 49.4 25.768Q47.16 25.236 45.76 24.704Q45.2247 24.4965 44.7448 24.1994Q43.9947 23.7351 43.38 23.052Q43.3427 23.0083 43.3068 22.9635L43.3063 22.9629Q42.4 21.83 42.4 19.972Q42.4 19.0144 42.7018 18.1639L42.7018 18.1639Q42.9118 17.5721 43.268 17.032Q44.164 15.688 45.928 14.904Q47.72 14.12 50.296 14.12Q51.1782 14.12 52.0468 14.2286L52.0468 14.2286Q52.9426 14.3406 53.824 14.568Q55.56 15.016 56.82 15.856L55.672 18.684C54.8133 18.18 53.9173 17.7974 52.984 17.536Q51.584 17.144 50.268 17.144Q48.112 17.144 47.048 17.872Q46.4687 18.2791 46.2134 18.8349Q46.012 19.2732 46.012 19.804Q46.012 20.2973 46.2147 20.6843Q46.3572 20.9564 46.6 21.176C47.0106 21.5307 47.524 21.8107 48.14 22.016Q49.064 22.324 50.66 22.716Q52.844 23.22 54.244 23.78C55.1773 24.1347 55.9706 24.6854 56.624 25.432Q56.7092 25.5267 56.7872 25.6271L56.7873 25.6272Q57.632 26.7131 57.632 28.456C57.632 29.5387 57.3333 30.5187 56.736 31.396C56.1573 32.2734 55.2706 32.9734 54.076 33.496Q52.284 34.28 49.708 34.28ZM73.6191 34.196C72.4058 34.196 71.2204 34.0374 70.0631 33.72C68.9058 33.4027 67.9818 33.0014 67.2911 32.516L68.6351 29.856C69.3071 30.304 70.1098 30.668 71.0431 30.948C71.9951 31.2094 72.9284 31.34 73.8431 31.34Q76.2979 31.34 76.8311 30.3278Q76.9791 30.0469 76.9791 29.688C76.9791 29.1654 76.7084 28.8014 76.1671 28.596C75.6444 28.3907 74.7951 28.1947 73.6191 28.008C72.3871 27.8214 71.3791 27.6067 70.5951 27.364C69.8298 27.1214 69.1578 26.7014 68.5791 26.104Q68.5378 26.0586 68.4985 26.0115Q67.7391 25.1002 67.7391 23.556C67.7391 22.1374 68.3271 21.008 69.5031 20.168C70.6978 19.3094 72.3031 18.88 74.3191 18.88C75.3458 18.88 76.3724 19.0014 77.3991 19.244Q78.9391 19.58 79.9191 20.168L78.5751 22.828Q78.1277 22.5648 77.6539 22.3635L77.6538 22.3634Q76.1117 21.708 74.2911 21.708C73.2644 21.708 72.4804 21.8667 71.9391 22.184Q71.4124 22.485 71.2395 22.925Q71.1551 23.1399 71.1551 23.388C71.1551 23.948 71.4351 24.3494 71.9951 24.592C72.5738 24.816 73.4604 25.0307 74.6551 25.236C75.8498 25.4227 76.8298 25.6374 77.5951 25.88C78.3604 26.1227 79.0138 26.5334 79.5551 27.112C80.1151 27.6907 80.3951 28.512 80.3951 29.576Q80.3951 30.498 80.0443 31.258Q79.5961 32.2292 78.5751 32.936C77.3618 33.776 75.7098 34.196 73.6191 34.196ZM107.611 18.88Q109.615 18.88 111.219 19.6817Q111.363 19.7536 111.503 19.832Q112.332 20.2863 112.988 20.9191Q113.707 21.6124 114.219 22.52Q114.243 22.562 114.266 22.6043Q114.271 22.6139 114.277 22.6234Q115.199 24.3233 115.199 26.524Q115.199 28.6588 114.331 30.347Q114.277 30.4524 114.219 30.556Q113.707 31.4636 112.988 32.1569Q112.332 32.7898 111.503 33.244Q111.363 33.3224 111.219 33.3944Q109.615 34.196 107.611 34.196C105.595 34.196 103.999 33.524 102.823 32.18L102.823 39.432L99.3233 39.432L99.3233 19.048L102.655 19.048L102.655 21.008C103.234 20.2987 103.943 19.7667 104.783 19.412C105.642 19.0574 106.585 18.88 107.611 18.88ZM161.365 34.196C160.152 34.196 158.966 34.0374 157.809 33.72C156.652 33.4027 155.728 33.0014 155.037 32.516L156.381 29.856C157.053 30.304 157.856 30.668 158.789 30.948C159.741 31.2094 160.674 31.34 161.589 31.34Q164.044 31.34 164.577 30.3278Q164.725 30.0469 164.725 29.688C164.725 29.1654 164.454 28.8014 163.913 28.596C163.39 28.3907 162.541 28.1947 161.365 28.008C160.133 27.8214 159.125 27.6067 158.341 27.364C157.576 27.1214 156.904 26.7014 156.325 26.104C155.765 25.488 155.485 24.6387 155.485 23.556C155.485 22.1374 156.073 21.008 157.249 20.168C158.444 19.3094 160.049 18.88 162.065 18.88C163.092 18.88 164.118 19.0014 165.145 19.244C166.172 19.468 167.012 19.776 167.665 20.168L166.321 22.828Q165.874 22.5648 165.4 22.3634Q163.858 21.708 162.037 21.708C161.01 21.708 160.226 21.8667 159.685 22.184C159.162 22.4827 158.901 22.884 158.901 23.388C158.901 23.948 159.181 24.3494 159.741 24.592C160.32 24.816 161.206 25.0307 162.401 25.236C163.596 25.4227 164.576 25.6374 165.341 25.88C166.106 26.1227 166.76 26.5334 167.301 27.112C167.861 27.6907 168.141 28.512 168.141 29.576Q168.141 30.498 167.79 31.258Q167.342 32.2292 166.321 32.936C165.108 33.776 163.456 34.196 161.365 34.196ZM60.9053 19.048L64.4053 19.048L64.4053 34L60.9053 34L60.9053 19.048ZM97.1358 19.048L90.1358 35.204C89.4825 36.828 88.6891 37.9667 87.7558 38.62Q87.5577 38.7627 87.3479 38.8851L87.3475 38.8853Q86.0743 39.628 84.3678 39.628C83.6211 39.628 82.8838 39.5067 82.1558 39.264C81.4278 39.0214 80.8305 38.6854 80.3638 38.256L81.7638 35.68C82.0998 35.9974 82.4918 36.2494 82.9398 36.436C83.4065 36.6227 83.8731 36.716 84.3398 36.716C84.9558 36.716 85.4598 36.5574 85.8518 36.24C86.2625 35.9227 86.6358 35.3907 86.9718 34.644L87.2238 34.056L80.6998 19.048L84.3398 19.048L89.0438 30.108L93.7758 19.048L97.1358 19.048ZM152.163 19.048L152.163 34L148.831 34L148.831 32.096C148.271 32.768 147.571 33.2907 146.731 33.664C145.891 34.0187 144.985 34.196 144.015 34.196C142.017 34.196 140.44 33.6454 139.283 32.544C138.144 31.424 137.575 29.772 137.575 27.588L137.575 19.048L141.075 19.048L141.075 27.112Q141.075 29.128 141.971 30.136Q142.129 30.3036 142.309 30.4424Q143.182 31.116 144.575 31.116Q146.002 31.116 146.976 30.4511Q147.282 30.2423 147.543 29.968C148.289 29.184 148.663 28.064 148.663 26.608L148.663 19.048L152.163 19.048ZM107.219 31.2C108.507 31.2 109.562 30.7707 110.383 29.912C111.223 29.0534 111.643 27.924 111.643 26.524C111.643 25.124 111.223 23.9947 110.383 23.136C109.562 22.2774 108.507 21.848 107.219 21.848C106.379 21.848 105.623 22.044 104.951 22.436C104.279 22.8094 103.747 23.3507 103.355 24.06Q102.767 25.124 102.767 26.524Q102.767 27.924 103.355 28.988C103.747 29.6974 104.279 30.248 104.951 30.64C105.623 31.0134 106.379 31.2 107.219 31.2Z" fill="rgb(71.34,84.39,102.66)" fill-rule="evenodd" />
</svg>
