<svg viewBox="0 0 160 48" xmlns="http://www.w3.org/2000/svg" xmlns:xlink="http://www.w3.org/1999/xlink" width="160.000000" height="48.000000" fill="none" customFrame="#000000">
	<defs>
		<clipPath id="clipPath_3">
			<rect width="44.000004" height="44.000000" x="0.000000" y="2.000000" fill="rgb(255,255,255)" />
		</clipPath>
	</defs>
	<rect id="Company logo" width="160.000015" height="48.000000" x="0.000000" y="0.000000" />
	<g id="Logomark" customFrame="url(#clipPath_3)">
		<rect id="Logomark" width="44.000004" height="44.000000" x="0.000000" y="2.000000" fill="rgb(255,255,255)" fill-opacity="0" />
		<path id="Exclude" d="M22 2C9.84969 2 0 11.8497 0 24C0 36.1503 9.84969 46 22 46C32.901 46 41.9502 38.0716 43.6958 27.6667L43.5379 27.6667C41.9098 33.9925 36.1674 38.6667 29.3333 38.6667C21.2332 38.6667 14.6667 32.1002 14.6667 24C14.6667 15.8998 21.2332 9.33333 29.3333 9.33333C36.1674 9.33333 41.9098 14.0075 43.5379 20.3333L43.6958 20.3333C41.9502 9.92838 32.901 2 22 2Z" fill="rgb(152.075,161.967,178.925)" fill-rule="nonzero" />
		<path id="Exclude" d="M0 24C0 11.8497 9.84974 2 22 2C32.901 2 41.9502 9.92838 43.6958 20.3333L28.8713 20.3333C27.2431 14.0075 21.5007 9.33333 14.6667 9.33333C6.56649 9.33333 0 15.8998 0 24Z" fill="rgb(102.225,112.408,132.775)" fill-rule="nonzero" />
		<path id="Exclude" d="M0 22C0 9.84974 9.84974 0 22 0C32.901 0 41.9502 7.92838 43.6958 18.3333L28.8713 18.3333C27.2431 12.0075 21.5007 7.33333 14.6667 7.33333C6.56649 7.33333 0 13.8998 0 22Z" fill="rgb(102.225,112.408,132.775)" fill-rule="nonzero" transform="matrix(1,0,0,-1,0,46)" />
	</g>
	<path id="Logotype" d="M75.4389 20.5071C74.8125 15.9829 71.3324 13.3579 66.8182 13.3579C61.4986 13.3579 57.4915 17.2358 57.4915 23.8181C57.4915 30.3906 61.4488 34.2784 66.8182 34.2784C71.6605 34.2784 74.8721 31.1463 75.4389 27.2585L71.7201 27.2386C71.2528 29.625 69.304 30.9673 66.8679 30.9673C63.5667 30.9673 61.2003 28.4914 61.2003 23.8181C61.2003 19.2244 63.5469 16.669 66.8778 16.669C69.3537 16.669 71.2926 18.071 71.7201 20.5071L75.4389 20.5071ZM125.05 13.6363L121.451 13.6363L121.451 34L125.05 34L125.05 13.6363ZM102.363 18.7272L99.3498 18.7272L99.3498 15.0681L95.7503 15.0681L95.7503 18.7272L93.5827 18.7272L93.5827 21.5113L95.7503 21.5113L95.7503 30.0028C95.7502 30.0164 95.7502 30.0299 95.7502 30.0434C95.7502 32.8897 97.8313 34.2879 100.523 34.2088C101.547 34.1789 102.253 33.9801 102.641 33.8508L102.034 31.0369C101.836 31.0866 101.428 31.1761 100.98 31.1761C100.076 31.1761 99.3498 30.8579 99.3498 29.4062L99.3498 21.5113L102.363 21.5113L102.363 18.7272ZM83.0529 34.3082C85.4492 34.3082 86.881 33.1846 87.5373 31.9019L87.6566 31.9019L87.6566 34L91.1168 34L91.1168 23.7784C91.1168 19.7414 87.8256 18.5284 84.9123 18.5284C81.7006 18.5284 79.2347 19.9602 78.4392 22.7443L81.8 23.2215C82.158 22.1775 83.1722 21.2826 84.9321 21.2826C86.6026 21.2826 87.5174 22.1377 87.5174 23.6392L87.5174 23.6988C87.5174 24.7329 86.4336 24.7826 83.739 25.071C80.7759 25.3892 77.9421 26.2741 77.9421 29.7144C77.9421 32.7173 80.1395 34.3082 83.0529 34.3082ZM109.768 34.3082C112.164 34.3082 113.596 33.1846 114.252 31.9019L114.371 31.9019L114.371 34L117.832 34L117.832 23.7784C117.832 19.7414 114.54 18.5284 111.627 18.5284C108.415 18.5284 105.95 19.9602 105.154 22.7443L108.515 23.2215C108.873 22.1775 109.887 21.2826 111.647 21.2826C113.317 21.2826 114.232 22.1377 114.232 23.6392L114.232 23.6988C114.232 24.7329 113.148 24.7826 110.454 25.071C107.491 25.3892 104.657 26.2741 104.657 29.7144C104.657 32.7173 106.854 34.3082 109.768 34.3082ZM135.414 34.2983C139.888 34.2983 142.732 31.1463 142.732 26.4233C142.732 21.6903 139.888 18.5284 135.414 18.5284C130.939 18.5284 128.095 21.6903 128.095 26.4233C128.095 31.1463 130.939 34.2983 135.414 34.2983ZM152.429 40.0454C156.555 40.0454 159.598 38.1562 159.598 34.2485L159.598 18.7272L156.048 18.7272L156.048 21.2528L155.849 21.2528C155.303 20.1491 154.159 18.5284 151.464 18.5284C147.935 18.5284 145.16 21.2926 145.16 26.3139C145.16 31.2954 147.935 33.7812 151.454 33.7812C154.07 33.7812 155.293 32.3792 155.849 31.2556L156.028 31.2556L156.028 34.1491C156.028 36.3963 154.537 37.321 152.489 37.321C150.321 37.321 149.366 36.2968 148.929 35.4019L145.687 36.1875C146.344 38.3252 148.541 40.0454 152.429 40.0454ZM135.434 31.4147C132.958 31.4147 131.745 29.2073 131.745 26.4133C131.745 23.6193 132.958 21.3821 135.434 21.3821C137.87 21.3821 139.083 23.6193 139.083 26.4133C139.083 29.2073 137.87 31.4147 135.434 31.4147ZM152.459 30.9573C150.082 30.9573 148.829 29.1079 148.829 26.294C148.829 23.5198 150.062 21.4815 152.459 21.4815C154.776 21.4815 156.048 23.4005 156.048 26.294C156.048 29.2073 154.756 30.9573 152.459 30.9573ZM83.9875 31.6633C82.4861 31.6633 81.4123 30.9772 81.4123 29.6548C81.4123 28.2727 82.6154 27.696 84.2262 27.4673C85.1708 27.338 87.06 27.0994 87.5273 26.7215L87.5273 28.5213C87.5273 30.2215 86.1552 31.6633 83.9875 31.6633ZM110.702 31.6633C109.201 31.6633 108.127 30.9772 108.127 29.6548C108.127 28.2727 109.33 27.696 110.941 27.4673C111.886 27.338 113.775 27.0994 114.242 26.7215L114.242 28.5213C114.242 30.2215 112.87 31.6633 110.702 31.6633Z" fill="rgb(71.34,84.39,102.66)" fill-rule="evenodd" />
</svg>
