<svg viewBox="0 0 183 48" xmlns="http://www.w3.org/2000/svg" xmlns:xlink="http://www.w3.org/1999/xlink" width="183.000000" height="48.000000" fill="none" customFrame="#000000">
	<defs>
		<clipPath id="clipPath_2">
			<rect width="44.000008" height="44.000000" x="0.000000" y="2.000000" fill="rgb(255,255,255)" />
		</clipPath>
	</defs>
	<rect id="Company logo" width="183.000015" height="48.000000" x="0.000000" y="0.000000" />
	<g id="Logomark" customFrame="url(#clipPath_2)">
		<rect id="Logomark" width="44.000008" height="44.000000" x="0.000000" y="2.000000" fill="rgb(255,255,255)" fill-opacity="0" />
		<path id="Intersect" d="M15.7141 33.4284C24.3929 33.4284 31.4284 26.3929 31.4284 17.7141C31.4284 16.7306 31.3381 15.7681 31.1652 14.8345C30.2316 14.6617 29.2692 14.5713 28.2856 14.5713C19.6068 14.5713 12.5713 21.6068 12.5713 30.2856C12.5713 31.2692 12.6617 32.2317 12.8345 33.1652C13.7681 33.3381 14.7306 33.4284 15.7141 33.4284Z" fill="rgb(102.225,112.408,132.775)" fill-rule="nonzero" />
		<path id="Circle" d="M12.8347 33.1653C5.53118 31.8127 0 25.4095 0 17.7143C0 9.03553 7.03553 2 15.7143 2C23.4095 2 29.8128 7.53118 31.1653 14.8347C30.2318 14.6618 29.2693 14.5714 28.2857 14.5714C19.607 14.5714 12.5714 21.607 12.5714 30.2857C12.5714 31.2693 12.6618 32.2318 12.8347 33.1653Z" fill="rgb(102.225,112.408,132.775)" fill-rule="evenodd" />
		<path id="Circle" d="M15.7141 33.4284C24.3928 33.4284 31.4284 26.3928 31.4284 17.7141C31.4284 16.7305 31.338 15.768 31.1651 14.8345C38.4686 16.187 43.9998 22.5903 43.9998 30.2855C43.9998 38.9643 36.9643 45.9998 28.2855 45.9998C20.5903 45.9998 14.187 40.4686 12.8345 33.1651C13.768 33.338 14.7305 33.4284 15.7141 33.4284Z" fill="rgb(152.075,161.967,178.925)" fill-rule="evenodd" />
	</g>
	<path id="Logotype" d="M79.0612 17.9839C77.4745 17.9839 76.6812 17.3026 76.6812 15.9399Q76.6812 15.0466 77.1236 14.5384Q77.7073 13.8679 79.0612 13.8679C80.6478 13.8679 81.4412 14.5586 81.4412 15.9399Q81.4412 16.8076 81.0123 17.3069Q80.4309 17.9839 79.0612 17.9839ZM149.679 13.8679L149.679 29.6879C149.679 30.3413 149.791 30.7986 150.015 31.0599C150.239 31.3213 150.612 31.4519 151.135 31.4519C151.452 31.4519 151.713 31.4333 151.919 31.3959C152.124 31.3586 152.385 31.2839 152.703 31.1719L152.367 33.6919C152.049 33.8786 151.648 34.0186 151.163 34.1119C150.696 34.2239 150.229 34.2799 149.763 34.2799C148.4 34.2799 147.401 33.9533 146.767 33.2999C146.151 32.6279 145.843 31.5639 145.843 30.1079L145.843 13.8679L149.679 13.8679ZM74.2279 28.9039C73.6679 30.7146 72.6879 32.0679 71.2879 32.9639Q71.0404 33.119 70.7832 33.2558Q68.8579 34.2799 66.3879 34.2799Q63.6439 34.2799 61.6279 33.1319Q60.888 32.7047 60.2723 32.1417Q59.2335 31.192 58.5479 29.8559Q57.4839 27.7279 57.4839 24.7599Q57.4839 21.7919 58.5759 19.6639Q59.2615 18.3279 60.3003 17.3781Q60.916 16.8152 61.6559 16.3879Q63.6439 15.2399 66.3319 15.2399Q69.1599 15.2399 71.1759 16.4439C72.5386 17.2279 73.4719 18.4226 73.9759 20.0279L70.4759 21.5119Q69.9999 19.8319 69.0199 19.1319Q68.0399 18.4039 66.4999 18.4039Q65.1404 18.4039 64.1048 18.9831Q63.3915 19.3821 62.8319 20.0559Q61.4879 21.6799 61.4879 24.7599C61.4879 26.7946 61.9172 28.3626 62.7759 29.4639Q63.1739 29.9744 63.6814 30.3271Q64.8166 31.1159 66.4999 31.1159C67.5079 31.1159 68.3759 30.8453 69.1039 30.3039C69.8505 29.7626 70.3732 28.9413 70.6719 27.8399L74.2279 28.9039ZM85.0315 33.9999L85.0315 19.9999L88.3635 19.9999L88.6155 22.7439Q89.1009 21.4411 90.0291 20.6743Q90.1183 20.6006 90.2115 20.5319C90.9395 19.9906 91.8542 19.7199 92.9555 19.7199C93.6088 19.7199 94.1128 19.8226 94.4675 20.0279L94.0195 23.2479Q93.7395 23.1639 93.3195 23.1079Q92.9275 23.0239 92.2835 23.0239Q91.9385 23.0239 91.6068 23.0903L91.6068 23.0903Q91.1039 23.1909 90.6315 23.4439C90.1275 23.7053 89.7075 24.1159 89.3715 24.6759C89.0355 25.2173 88.8675 25.9079 88.8675 26.7479L88.8675 33.9999L85.0315 33.9999ZM102.927 19.7199Q105.727 19.7199 107.267 20.9239Q108.467 21.846 109.044 23.0637Q109.221 23.436 109.339 23.8359L105.755 25.1239Q105.416 23.5856 104.476 22.976Q103.859 22.5759 102.983 22.5759C101.919 22.5759 101.088 22.9493 100.491 23.6959Q99.6226 24.8159 99.6226 27.0279C99.6226 28.5213 99.9212 29.6319 100.519 30.3599C101.135 31.0693 101.965 31.4239 103.011 31.4239C104.635 31.4239 105.605 30.5933 105.923 28.9319L109.395 30.0519C109.077 31.3026 108.368 32.3199 107.267 33.1039Q105.643 34.2799 103.039 34.2799C101.583 34.2799 100.304 33.9906 99.2026 33.4119C98.1199 32.8333 97.2799 32.0026 96.6826 30.9199C96.0852 29.8373 95.7866 28.5306 95.7866 26.9999C95.7866 25.4693 96.0852 24.1626 96.6826 23.0799C97.2986 21.9973 98.1386 21.1666 99.2026 20.5879C100.285 20.0093 101.527 19.7199 102.927 19.7199ZM118.759 19.7199C120.159 19.7199 121.401 20.0093 122.483 20.5879C123.566 21.1666 124.406 21.9973 125.003 23.0799C125.619 24.1626 125.927 25.4693 125.927 26.9999C125.927 28.5306 125.619 29.8373 125.003 30.9199C124.406 32.0026 123.566 32.8333 122.483 33.4119C121.401 33.9906 120.159 34.2799 118.759 34.2799Q116.631 34.2799 115.007 33.4119C113.943 32.8333 113.103 32.0026 112.487 30.9199C111.89 29.8373 111.591 28.5306 111.591 26.9999C111.591 25.4693 111.89 24.1626 112.487 23.0799C113.103 21.9973 113.943 21.1666 115.007 20.5879Q116.631 19.7199 118.759 19.7199ZM135.521 19.7199C136.921 19.7199 138.162 20.0093 139.245 20.5879C140.328 21.1666 141.168 21.9973 141.765 23.0799C142.381 24.1626 142.689 25.4693 142.689 26.9999C142.689 28.5306 142.381 29.8373 141.765 30.9199C141.168 32.0026 140.328 32.8333 139.245 33.4119C138.162 33.9906 136.921 34.2799 135.521 34.2799C134.102 34.2799 132.852 33.9906 131.769 33.4119C130.705 32.8333 129.865 32.0026 129.249 30.9199C128.652 29.8373 128.353 28.5306 128.353 26.9999C128.353 25.4693 128.652 24.1626 129.249 23.0799C129.865 21.9973 130.705 21.1666 131.769 20.5879C132.852 20.0093 134.102 19.7199 135.521 19.7199ZM161.336 34.2799C159.133 34.2799 157.369 33.6453 156.044 32.3759Q155.716 32.0566 155.441 31.696Q154.056 29.8748 154.056 26.9999C154.056 25.4693 154.355 24.1626 154.952 23.0799C155.549 21.9973 156.38 21.1666 157.444 20.5879C158.527 20.0093 159.759 19.7199 161.14 19.7199C162.559 19.7199 163.763 20.0093 164.752 20.5879C165.741 21.1479 166.497 21.9226 167.02 22.9119C167.543 23.8826 167.804 24.9933 167.804 26.2439C167.804 26.6173 167.795 26.9719 167.776 27.3079C167.757 27.6439 167.729 27.9426 167.692 28.2039L157.808 28.2039C157.957 29.2866 158.331 30.0986 158.928 30.6399C159.544 31.1626 160.337 31.4239 161.308 31.4239C162.129 31.4239 162.792 31.2653 163.296 30.9479C163.8 30.6306 164.192 30.1919 164.472 29.6319L167.524 30.8079C167.076 31.9093 166.292 32.7679 165.172 33.3839C164.052 33.9813 162.773 34.2799 161.336 34.2799ZM176.655 34.2799C175.236 34.2799 173.939 34.0279 172.763 33.5239C171.606 33.0199 170.663 32.3106 169.935 31.3959L172.147 29.1559C172.595 29.8279 173.192 30.3786 173.939 30.8079Q175.059 31.4519 176.599 31.4519Q177.691 31.4519 178.335 31.1439C178.783 30.9199 179.007 30.5746 179.007 30.1079C179.007 29.8093 178.904 29.5573 178.699 29.3519C178.494 29.1279 178.083 28.9506 177.467 28.8199L175.003 28.3159Q172.567 27.8119 171.531 26.8039Q171.23 26.4944 171.019 26.1323Q170.523 25.2827 170.523 24.1439Q170.523 23.7523 170.601 23.377Q170.752 22.6521 171.195 21.9879Q171.895 20.9799 173.267 20.3639C174.182 19.9346 175.32 19.7199 176.683 19.7199Q180.15 19.7199 182.019 21.4483L182.02 21.4485Q182.445 21.8415 182.787 22.3239L180.491 24.5639C180.08 23.9106 179.539 23.4159 178.867 23.0799C178.214 22.7253 177.523 22.5479 176.795 22.5479C175.152 22.5479 174.331 23.0053 174.331 23.9199C174.331 24.2186 174.462 24.4799 174.723 24.7039C174.984 24.9093 175.46 25.0866 176.151 25.2359L179.007 25.8239C180.388 26.1039 181.378 26.5799 181.975 27.2519Q182.333 27.6434 182.548 28.102Q182.871 28.7913 182.871 29.6319C182.871 30.9759 182.33 32.0866 181.247 32.9639C180.183 33.8413 178.652 34.2799 176.655 34.2799ZM80.9652 19.9999L80.9652 33.9999L77.1292 33.9999L77.1292 19.9999L80.9652 19.9999ZM161.112 22.5479C159.301 22.5479 158.209 23.5466 157.836 25.5439L164.136 25.5439C164.024 24.5733 163.707 23.8359 163.184 23.3319C162.68 22.8093 161.989 22.5479 161.112 22.5479ZM118.759 22.5759C117.714 22.5759 116.893 22.9493 116.295 23.6959Q115.427 24.7879 115.427 26.9999Q115.427 29.2119 116.295 30.3319C116.893 31.0599 117.714 31.4239 118.759 31.4239C119.786 31.4239 120.589 31.0599 121.167 30.3319Q122.063 29.2119 122.063 26.9999Q122.063 24.7879 121.167 23.6959C120.589 22.9493 119.786 22.5759 118.759 22.5759ZM135.521 22.5759C134.476 22.5759 133.654 22.9493 133.057 23.6959C132.478 24.4239 132.189 25.5253 132.189 26.9999C132.189 28.4746 132.478 29.5853 133.057 30.3319C133.654 31.0599 134.476 31.4239 135.521 31.4239C136.548 31.4239 137.35 31.0599 137.929 30.3319Q138.825 29.2119 138.825 26.9999Q138.825 24.7879 137.929 23.6959C137.35 22.9493 136.548 22.5759 135.521 22.5759Z" fill="rgb(71.34,84.39,102.66)" fill-rule="evenodd" />
</svg>
