<svg viewBox="0 0 146 48" xmlns="http://www.w3.org/2000/svg" xmlns:xlink="http://www.w3.org/1999/xlink" width="146.000000" height="48.000000" fill="none" customFrame="#000000">
	<defs>
		<clipPath id="clipPath_0">
			<rect width="44.000000" height="44.000000" x="0.000000" y="2.000000" fill="rgb(255,255,255)" />
		</clipPath>
	</defs>
	<rect id="Company logo" width="146.000000" height="48.000000" x="0.000000" y="0.000000" />
	<g id="Logomark" customFrame="url(#clipPath_0)">
		<rect id="Logomark" width="44.000000" height="44.000000" x="0.000000" y="2.000000" fill="rgb(255,255,255)" fill-opacity="0" />
		<path id="Isometric square" d="M0 5.75163C0 2.57509 2.57509 0 5.75163 0L25.5556 0C28.7321 0 31.3072 2.57509 31.3072 5.75163L31.3072 25.5556C31.3072 28.7321 28.7322 31.3072 25.5556 31.3072L5.75163 31.3072C2.57509 31.3072 0 28.7321 0 25.5556L0 5.75163Z" fill="rgb(152.075,161.967,178.925)" fill-rule="nonzero" transform="matrix(0.965916,-0.258855,-0.258855,0.965916,14.7664,16.7627)" />
		<path id="Isometric square" d="M0 5.75163C0 2.57509 2.57509 0 5.75163 0L25.5556 0C28.7322 0 31.3073 2.57509 31.3073 5.75163L31.3073 25.5556C31.3073 28.7321 28.7322 31.3072 25.5556 31.3072L5.75164 31.3072C2.5751 31.3072 0 28.7321 0 25.5556L0 5.75163Z" fill="rgb(102.225,112.408,132.775)" fill-rule="nonzero" transform="matrix(0.965916,-0.258855,-0.258855,0.965916,7.09766,9.09375)" />
	</g>
	<path id="Logotype" d="M61.2921 31.424L67.8721 31.424L67.8721 34L58.1001 34L58.1001 14.54L61.2921 14.54L61.2921 31.424ZM70.4295 22.1Q69.4775 23.892 69.4775 26.216Q69.4775 28.4853 70.3852 30.3008L70.3852 30.3008Q70.4071 30.3446 70.4295 30.388C71.0828 31.6014 71.9602 32.5534 73.0615 33.244C74.1628 33.916 75.3762 34.252 76.7015 34.252Q78.4935 34.252 79.8935 33.524Q81.2935 32.796 82.1055 31.704L82.1055 34L85.3255 34L85.3255 18.572L82.1055 18.572L82.1055 20.812C81.5642 20.1027 80.8362 19.5147 79.9215 19.048Q78.5775 18.32 76.7575 18.32Q75.5479 18.32 74.4593 18.6829L74.4584 18.6832Q73.7331 18.9251 73.0615 19.328Q72.5942 19.6052 72.1807 19.9474L72.1803 19.9477L72.1803 19.9478Q71.1322 20.8152 70.4295 22.1ZM119.843 27.476C119.918 27.0094 119.955 26.4867 119.955 25.908Q119.955 23.668 119.003 21.96C118.368 20.8027 117.482 19.9067 116.343 19.272C115.204 18.6374 113.907 18.32 112.451 18.32Q110.316 18.32 108.628 19.1882L108.628 19.1883L108.622 19.1916L108.619 19.193Q108.518 19.245 108.419 19.3C107.262 19.9534 106.356 20.8867 105.703 22.1Q104.751 23.892 104.751 26.272C104.751 27.8587 105.078 29.2587 105.731 30.472C106.403 31.6667 107.318 32.6 108.475 33.272C109.651 33.9254 110.976 34.252 112.451 34.252C114.262 34.252 115.774 33.804 116.987 32.908C118.219 31.9934 119.068 30.8267 119.535 29.408L116.091 29.408Q115.625 30.3531 114.868 30.8839Q113.898 31.564 112.451 31.564C111.256 31.564 110.248 31.1907 109.427 30.444C108.606 29.6974 108.148 28.708 108.055 27.476L119.843 27.476ZM126.288 20.812C126.755 20.028 127.371 19.4214 128.136 18.992C128.92 18.544 129.844 18.32 130.908 18.32L130.908 21.624L130.096 21.624C128.846 21.624 127.894 21.9414 127.24 22.576C126.606 23.2107 126.288 24.312 126.288 25.88L126.288 34L123.096 34L123.096 18.572L126.288 18.572L126.288 20.812ZM136.166 33.608C137.137 34.0374 138.229 34.252 139.442 34.252C140.637 34.252 141.673 34.056 142.55 33.664C143.446 33.272 144.137 32.7307 144.622 32.04Q144.909 31.6315 145.083 31.1794Q145.35 30.4851 145.35 29.688C145.332 28.6987 145.061 27.9054 144.538 27.308C144.016 26.7107 143.39 26.2627 142.662 25.964C141.953 25.6467 141.038 25.3387 139.918 25.04C139.078 24.7974 138.444 24.6014 138.014 24.452C137.585 24.284 137.221 24.06 136.922 23.78C136.624 23.5 136.474 23.1547 136.474 22.744C136.474 22.2214 136.698 21.8014 137.146 21.484Q137.818 21.008 139.078 21.008C139.937 21.008 140.618 21.2134 141.122 21.624C141.626 22.0347 141.906 22.5854 141.962 23.276L145.154 23.276Q145.082 21.8045 144.39 20.7356Q144.001 20.1366 143.418 19.664C142.354 18.768 140.945 18.32 139.19 18.32C138.014 18.32 136.969 18.516 136.054 18.908C135.158 19.3 134.468 19.8414 133.982 20.532C133.497 21.204 133.254 21.9507 133.254 22.772C133.254 23.78 133.516 24.592 134.038 25.208Q134.604 25.8517 135.305 26.2644Q135.611 26.4441 135.942 26.58C136.67 26.8787 137.613 27.1867 138.77 27.504C139.965 27.84 140.833 28.148 141.374 28.428C141.934 28.708 142.214 29.1374 142.214 29.716C142.214 30.2574 141.962 30.7054 141.458 31.06C140.973 31.396 140.282 31.564 139.386 31.564C138.528 31.564 137.809 31.3494 137.23 30.92C136.67 30.472 136.362 29.9214 136.306 29.268L133.002 29.268C133.04 30.2014 133.338 31.0507 133.898 31.816C134.458 32.5627 135.214 33.16 136.166 33.608ZM103.406 18.572L93.9421 41.252L90.6381 41.252L93.7741 33.748L87.6981 18.572L91.2541 18.572L95.5941 30.332L100.102 18.572L103.406 18.572ZM115.363 22.072C116.184 22.7814 116.604 23.724 116.623 24.9L108.083 24.9Q108.256 23.5159 108.997 22.5828Q109.215 22.3078 109.483 22.072C110.267 21.3627 111.21 21.008 112.311 21.008C113.524 21.008 114.542 21.3627 115.363 22.072ZM81.4335 23.5Q82.1055 24.676 82.1055 26.272Q82.1055 27.868 81.4335 29.072Q80.9235 30.0034 80.15 30.5836L80.1497 30.5837L80.1479 30.5851Q79.9457 30.7366 79.7255 30.864C79.0162 31.2747 78.2508 31.48 77.4295 31.48C76.6268 31.48 75.8615 31.2747 75.1335 30.864Q75.0051 30.7863 74.8824 30.7005L74.8821 30.7003L74.8821 30.7002Q73.9883 30.0746 73.3975 29.016Q72.7535 27.812 72.7535 26.216Q72.7535 24.62 73.3975 23.472Q73.9735 22.464 74.8375 21.888L74.8377 21.8879Q74.9816 21.792 75.1335 21.708Q75.6573 21.4048 76.2218 21.2508L76.2219 21.2508Q76.804 21.092 77.4295 21.092C78.2508 21.092 79.0162 21.2974 79.7255 21.708Q79.9468 21.8362 80.15 21.9885Q80.9235 22.5687 81.4335 23.5Z" fill="rgb(71.34,84.39,102.66)" fill-rule="evenodd" />
</svg>
