<svg viewBox="0 0 187 48" xmlns="http://www.w3.org/2000/svg" xmlns:xlink="http://www.w3.org/1999/xlink" width="187.000000" height="48.000000" fill="none" customFrame="#000000">
	<defs>
		<clipPath id="clipPath_4">
			<rect width="43.999992" height="44.000000" x="0.000000" y="2.000000" fill="rgb(255,255,255)" />
		</clipPath>
	</defs>
	<rect id="Company logo" width="186.999985" height="48.000000" x="0.000000" y="0.000000" />
	<g id="Logomark" customFrame="url(#clipPath_4)">
		<rect id="Logomark" width="43.999992" height="44.000000" x="0.000000" y="2.000000" />
		<path id="Ring" d="M22 36.4667C28.8851 36.4667 34.4667 30.8851 34.4667 24C34.4667 17.1148 28.8851 11.5333 22 11.5333C15.1148 11.5333 9.53333 17.1148 9.53333 24C9.53333 30.8851 15.1148 36.4667 22 36.4667ZM22 46C34.1503 46 44 36.1503 44 24C44 11.8497 34.1503 2 22 2C9.84973 2 0 11.8497 0 24C0 36.1503 9.84973 46 22 46Z" fill="rgb(102.225,112.408,132.775)" fill-rule="evenodd" />
		<path id="Descender" d="M0 5.86667C0 2.6266 2.6266 0 5.86667 0L22 0C25.2401 0 27.8667 2.6266 27.8667 5.86667L27.8667 5.86667C27.8667 9.10674 25.2401 11.7333 22 11.7333L5.86667 11.7333C2.6266 11.7333 0 9.10674 0 5.86667L0 5.86667Z" fill="rgb(152.075,161.967,178.925)" fill-rule="nonzero" transform="matrix(0.707107,0.707107,-0.707107,0.707107,26.3999,20.3335)" />
		<path id="Intersect" d="M25.4551 35.9818L32.7004 43.2271C36.1756 41.289 39.0709 38.436 41.0605 34.9938L33.8746 27.8079C32.6124 31.7473 29.4441 34.8336 25.4551 35.9818Z" fill="rgb(102.225,112.408,132.775)" fill-rule="nonzero" />
	</g>
	<path id="Logotype" d="M133.563 16.8359C132.761 16.8359 132.107 16.6025 131.603 16.1359Q131.232 15.7919 131.043 15.3668Q130.847 14.9268 130.847 14.3999Q130.847 13.873 131.043 13.433Q131.232 13.0078 131.603 12.6639C132.107 12.1972 132.761 11.9639 133.563 11.9639C134.366 11.9639 135.019 12.1879 135.523 12.6359Q135.905 12.9753 136.094 13.4005Q136.279 13.8171 136.279 14.3159Q136.279 14.9324 136.038 15.4329Q135.852 15.8189 135.523 16.1359C135.019 16.6025 134.366 16.8359 133.563 16.8359ZM79.52 36.0999C78.8854 36.8839 78.1107 37.4812 77.196 37.8919C76.3 38.3025 75.3107 38.5079 74.228 38.5079Q72.3777 38.5079 70.8289 37.8246Q70.5496 37.7013 70.28 37.5559Q68.516 36.6319 66.248 34.2519C64.4747 34.0279 62.888 33.4585 61.488 32.5439Q60.3466 31.788 59.4771 30.7943L59.477 30.7943Q58.7682 29.9841 58.24 29.0159Q57.9834 28.5277 57.7842 28.0171Q57.092 26.2435 57.092 24.1999Q57.092 22.0049 57.8868 20.1505Q58.1362 19.5684 58.464 19.0199Q59.0619 18.0275 59.8486 17.2189Q60.9043 16.1339 62.3 15.3799Q62.6357 15.2006 62.9822 15.0458L62.9823 15.0457Q65.1798 14.0639 67.816 14.0639Q70.5337 14.0639 72.7629 15.1073Q73.0372 15.2357 73.304 15.3799C74.928 16.2572 76.2067 17.4705 77.14 19.0199Q77.5104 19.6272 77.7828 20.2758Q78.54 22.0788 78.54 24.1999Q78.54 26.4084 77.7325 28.2658Q77.2909 29.2813 76.608 30.1919Q75.8363 31.236 74.8575 32.0226Q73.4215 33.1765 71.54 33.7759C72.0067 34.2612 72.4547 34.6065 72.884 34.8119C73.332 35.0359 73.808 35.1479 74.312 35.1479Q74.9515 35.1479 75.5357 34.9681Q76.6141 34.6363 77.504 33.6919L79.52 36.0999ZM128.927 33.2719C128.498 33.5892 127.966 33.8319 127.331 33.9999C126.715 34.1492 126.062 34.2239 125.371 34.2239C123.579 34.2239 122.189 33.7665 121.199 32.8519C120.229 31.9372 119.743 30.5932 119.743 28.8199L119.743 22.6319L117.419 22.6319L117.419 19.2719L119.743 19.2719L119.743 15.6039L124.111 15.6039L124.111 19.2719L127.863 19.2719L127.863 22.6319L124.111 22.6319L124.111 28.7639C124.111 29.3985 124.27 29.8932 124.587 30.2479Q124.657 30.3176 124.734 30.3778Q125.215 30.7519 125.987 30.7519C126.678 30.7519 127.266 30.5652 127.751 30.1919L128.927 33.2719ZM186.541 33.2719C186.111 33.5892 185.579 33.8319 184.945 33.9999C184.329 34.1492 183.675 34.2239 182.985 34.2239C181.193 34.2239 179.802 33.7665 178.813 32.8519C177.842 31.9372 177.357 30.5932 177.357 28.8199L177.357 22.6319L175.033 22.6319L175.033 19.2719L177.357 19.2719L177.357 15.6039L181.725 15.6039L181.725 19.2719L185.477 19.2719L185.477 22.6319L181.725 22.6319L181.725 28.7639C181.725 29.3985 181.883 29.8932 182.201 30.2479Q182.27 30.3176 182.348 30.3778Q182.829 30.7519 183.601 30.7519C184.291 30.7519 184.879 30.5652 185.365 30.1919L186.541 33.2719ZM61.684 24.1999Q61.684 25.8899 62.36 27.2419Q62.412 27.3459 62.468 27.4479C63.0094 28.3999 63.7467 29.1465 64.68 29.6879Q64.9576 29.8433 65.2484 29.9679L65.2484 29.9679Q66.4243 30.4719 67.816 30.4719Q69.2078 30.4719 70.3837 29.9679Q70.6745 29.8433 70.952 29.6879Q71.6202 29.3003 72.1481 28.7724Q72.7262 28.1943 73.136 27.4479C73.6774 26.4959 73.948 25.4132 73.948 24.1999C73.948 22.9865 73.6774 21.9039 73.136 20.9519Q72.705 20.1667 72.0877 19.5762L72.0876 19.5762Q71.5823 19.0928 70.952 18.7399Q70.6095 18.5412 70.2468 18.3911Q69.1273 17.9279 67.816 17.9279Q66.5048 17.9279 65.3852 18.3911Q65.0226 18.5412 64.68 18.7399Q64.0941 19.068 63.6111 19.509Q62.9402 20.1216 62.468 20.9519Q62.412 21.0539 62.36 21.1579Q61.684 22.5099 61.684 24.1999ZM108.032 34.2239C106.445 34.2239 105.017 33.8972 103.748 33.2439C102.497 32.5719 101.517 31.6479 100.808 30.4719C100.098 29.2959 99.7437 27.9612 99.7437 26.4679C99.7437 24.9745 100.098 23.6399 100.808 22.4639C101.517 21.2879 102.497 20.3732 103.748 19.7199Q103.915 19.6313 104.086 19.5505L104.088 19.5497Q105.862 18.7119 108.032 18.7119Q110.279 18.7119 112.078 19.611L112.079 19.6116Q112.184 19.6642 112.288 19.7199Q113.399 20.3006 114.226 21.1568Q114.794 21.7453 115.228 22.4639C115.937 23.6399 116.292 24.9745 116.292 26.4679C116.292 27.9612 115.937 29.2959 115.228 30.4719C114.518 31.6479 113.538 32.5719 112.288 33.2439Q112.265 33.2559 112.242 33.2678Q110.382 34.2239 108.032 34.2239ZM154.557 26.5239C154.557 26.5799 154.529 26.9719 154.473 27.6999L143.077 27.6999C143.283 28.6332 143.768 29.3705 144.533 29.9119C145.299 30.4532 146.251 30.7239 147.389 30.7239C148.173 30.7239 148.864 30.6119 149.461 30.3879C150.077 30.1452 150.647 29.7719 151.169 29.2679L153.493 31.7879Q153.109 32.2272 152.662 32.5874Q150.628 34.2239 147.277 34.2239C145.579 34.2239 144.076 33.8972 142.769 33.2439C141.463 32.5719 140.455 31.6479 139.745 30.4719C139.036 29.2959 138.681 27.9612 138.681 26.4679C138.681 24.9932 139.027 23.6679 139.717 22.4919Q140.28 21.5445 141.053 20.8241Q141.743 20.1818 142.601 19.7199C143.833 19.0479 145.205 18.7119 146.717 18.7119C148.192 18.7119 149.527 19.0292 150.721 19.6639C151.916 20.2985 152.849 21.2132 153.521 22.4079C154.212 23.5839 154.557 24.9559 154.557 26.5239ZM166.621 18.7119C168.488 18.7119 169.991 19.2719 171.129 20.3919Q171.217 20.4767 171.3 20.5657Q172.865 22.2387 172.865 25.3759L172.865 33.9999L168.497 33.9999L168.497 26.0479C168.497 24.8532 168.236 23.9665 167.713 23.3879C167.191 22.7905 166.435 22.4919 165.445 22.4919Q164.243 22.4919 163.396 23.041L163.396 23.041Q163.08 23.2461 162.813 23.5279C162.16 24.1999 161.833 25.2079 161.833 26.5519L161.833 33.9999L157.465 33.9999L157.465 18.9359L161.637 18.9359L161.637 20.6999Q161.779 20.544 161.933 20.4001L161.934 20.3992Q162.717 19.6651 163.793 19.2439Q165.081 18.7119 166.621 18.7119ZM96.817 18.9359L96.817 33.9999L92.673 33.9999L92.673 32.2079Q92.2651 32.6685 91.7829 33.0301Q91.2392 33.4379 90.601 33.7199C89.7984 34.0559 88.9304 34.2239 87.997 34.2239C86.0184 34.2239 84.4504 33.6545 83.293 32.5159Q83.2352 32.459 83.1793 32.4002L83.1789 32.3998Q81.557 30.6955 81.557 27.4479L81.557 18.9359L85.925 18.9359L85.925 26.8039Q85.925 28.9412 86.9774 29.8236Q87.7172 30.4439 88.977 30.4439C90.0224 30.4439 90.8624 30.1079 91.497 29.4359Q92.449 28.3999 92.449 26.3839L92.449 18.9359L96.817 18.9359ZM131.379 18.9359L135.747 18.9359L135.747 33.9999L131.379 33.9999L131.379 18.9359ZM146.745 22.0159Q145.621 22.0159 144.769 22.4982Q144.497 22.6524 144.253 22.8559C143.581 23.4159 143.171 24.1812 143.021 25.1519L150.441 25.1519C150.292 24.1999 149.881 23.4439 149.209 22.8839C148.537 22.3052 147.716 22.0159 146.745 22.0159ZM108.032 30.6399C109.152 30.6399 110.066 30.2665 110.776 29.5199C111.504 28.7545 111.868 27.7372 111.868 26.4679C111.868 25.1985 111.504 24.1905 110.776 23.4439C110.066 22.6785 109.152 22.2959 108.032 22.2959C106.912 22.2959 105.988 22.6785 105.26 23.4439C104.532 24.1905 104.168 25.1985 104.168 26.4679C104.168 27.7372 104.532 28.7545 105.26 29.5199C105.988 30.2665 106.912 30.6399 108.032 30.6399Z" fill="rgb(71.34,84.39,102.66)" fill-rule="evenodd" />
</svg>
